<svg width="80" height="80" viewBox="0 0 80 80" fill="none" xmlns="http://www.w3.org/2000/svg">
  <path fill-rule="evenodd" clip-rule="evenodd" d="M14.3666 0C6.43213 0 0 6.43213 0 14.3666V65.6334C0 73.5679 6.43213 80 14.3666 80H65.6334C73.5679 80 80 73.5679 80 65.6334V14.3666C80 6.43213 73.5679 0 65.6334 0H14.3666ZM31.984 15.2954C33.6735 15.2954 35.0431 16.665 35.0431 18.3545V22.5927C35.0431 24.2822 33.6735 25.6518 31.984 25.6518H29.1206C27.4311 25.6518 26.0615 27.0214 26.0615 28.7109V61.9469C26.0615 63.6364 24.6919 65.0061 23.0024 65.0061H18.4382C16.7487 65.0061 15.3791 63.6364 15.3791 61.9469V28.7107C15.3791 27.0212 16.7487 25.6516 18.4382 25.6516H21.3016C22.9911 25.6516 24.3607 24.282 24.3607 22.5925V18.3545C24.3607 16.665 25.7303 15.2954 27.4198 15.2954H31.984ZM53.4213 15.2954C55.1108 15.2954 56.4804 16.665 56.4804 18.3545V22.5925C56.4804 24.282 57.85 25.6516 59.5395 25.6516H62.0307C63.7202 25.6516 65.0898 27.0212 65.0898 28.7107V61.9469C65.0898 63.6364 63.7202 65.0061 62.0307 65.0061H57.4665C55.777 65.0061 54.4074 63.6364 54.4074 61.9469V28.7109C54.4074 27.0214 53.0378 25.6518 51.3483 25.6518H48.8571C47.1676 25.6518 45.798 24.2822 45.798 22.5927V18.3545C45.798 16.665 47.1676 15.2954 48.8571 15.2954H53.4213ZM42.5904 35.1207C44.2799 35.1207 45.6495 36.4903 45.6495 38.1798V52.1826C45.6495 53.8721 44.2799 55.2417 42.5904 55.2417H38.0262C36.3367 55.2417 34.9671 53.8721 34.9671 52.1826V38.1798C34.9671 36.4903 36.3367 35.1207 38.0262 35.1207H42.5904Z" fill="#5353D3"/>
</svg>
