<svg width="101" height="18" viewBox="0 0 101 18" fill="none" xmlns="http://www.w3.org/2000/svg">
  <path fill-rule="evenodd" clip-rule="evenodd" d="M7.55982 0.900007C7.55982 0.402947 7.15688 0 6.65982 0H4.69043C4.19337 0 3.79043 0.402947 3.79043 0.900007V2.84988C3.79043 3.34694 3.38749 3.74988 2.89043 3.74988H1.52109C1.02404 3.74988 0.621094 4.15283 0.621094 4.64989V17.1C0.621094 17.5971 1.02404 18 1.52109 18H3.49049C3.98755 18 4.39049 17.5971 4.39049 17.1V4.65004C4.39049 4.15298 4.79343 3.75003 5.29049 3.75003H6.65982C7.15688 3.75003 7.55982 3.34708 7.55982 2.85002V0.900007ZM15.124 0.900007C15.124 0.402947 14.721 0 14.224 0H12.2546C11.7575 0 11.3546 0.402947 11.3546 0.900008V2.85002C11.3546 3.34708 11.7575 3.75003 12.2546 3.75003H13.4925C13.9896 3.75003 14.3925 4.15298 14.3925 4.65004V17.1C14.3925 17.5971 14.7955 18 15.2925 18H17.2619C17.759 18 18.1619 17.5971 18.1619 17.1V4.64989C18.1619 4.15283 17.759 3.74988 17.2619 3.74988H16.024C15.5269 3.74988 15.124 3.34694 15.124 2.84988V0.900007ZM11.3022 8.07853C11.3022 7.58147 10.8993 7.17853 10.4022 7.17853H8.43281C7.93575 7.17853 7.53281 7.58147 7.53281 8.07853V13.5643C7.53281 14.0614 7.93575 14.4643 8.43281 14.4643H10.4022C10.8993 14.4643 11.3022 14.0614 11.3022 13.5643V8.07853Z" fill="#5353D3"/>
  <path d="M24.1621 4.81679H28.6148C30.5011 4.81679 31.5215 5.80927 31.5215 7.23816C31.5355 7.68475 31.4145 8.12514 31.1744 8.50152C30.9344 8.8779 30.5865 9.17268 30.1764 9.34716V9.39368C30.7068 9.55517 31.1696 9.88699 31.4937 10.3381C31.8177 10.7892 31.985 11.3346 31.9698 11.8904C31.9698 13.4876 30.8655 14.7437 28.8622 14.7437H24.1621V4.81679ZM28.6458 8.85093C29.357 8.85093 29.8672 8.32368 29.8672 7.52172C29.8672 6.71977 29.357 6.19252 28.6458 6.19252H25.8208V8.85093H28.6458ZM28.8468 13.3791C29.6971 13.3791 30.3155 12.7278 30.3155 11.7818C30.3155 10.8359 29.6971 10.2001 28.8468 10.2001H25.8208V13.3791H28.8468Z" fill="#5353D3"/>
  <path d="M34.0416 5.99757H33.1095V4.5H35.676V14.7371H34.0372L34.0416 5.99757Z" fill="#5353D3"/>
  <path d="M37.1934 11.0685C37.1934 8.81991 38.8499 7.16062 41.1381 7.16062C43.4263 7.16062 45.0961 8.8044 45.0961 11.0685C45.0961 13.3326 43.4418 14.9608 41.1381 14.9608C38.8345 14.9608 37.1934 13.317 37.1934 11.0685ZM40.7052 13.4876H41.5887C42.5937 13.4876 43.4749 12.4176 43.4749 11.0685C43.4749 9.71934 42.5914 8.63161 41.5887 8.63161H40.7052C39.7003 8.63161 38.819 9.73928 38.819 11.0685C38.819 12.3977 39.7003 13.4876 40.7052 13.4876Z" fill="#5353D3"/>
  <path d="M46.1607 11.053C46.1607 8.75788 47.7399 7.16062 50.0127 7.16062C51.837 7.16062 53.2749 8.10657 53.5068 10.0406H51.9143C51.7597 9.0636 51.064 8.62939 50.3528 8.62939H49.5797C48.5902 8.62939 47.7863 9.71491 47.7863 11.0663C47.7863 12.4176 48.5902 13.5164 49.5797 13.5164H50.3528C50.748 13.518 51.1294 13.3706 51.4215 13.1035C51.7135 12.8365 51.8949 12.4691 51.9298 12.0742H53.5223C53.3014 13.9817 51.8525 14.9741 49.9884 14.9741C47.7222 14.9608 46.1607 13.3481 46.1607 11.053Z" fill="#5353D3"/>
  <path d="M54.9888 4.5H56.6122V10.1469H57.7895L59.9849 7.37108H61.8402L59.1345 10.7982L61.9639 14.7371H60.0158L57.6503 11.4805H56.6122V14.7371H54.9888V4.5Z" fill="#5353D3"/>
  <path d="M62.706 12.5262H64.2675C64.3448 13.1775 64.7468 13.5962 65.5928 13.5962H66.6154C67.342 13.5962 67.6822 13.224 67.6822 12.7278C67.6822 12.2315 67.4039 11.9369 66.7391 11.8416L65.0207 11.6201C63.5674 11.4495 62.918 10.5811 62.918 9.44907C62.918 7.96036 64.0224 7.15398 65.9948 7.15398C67.8832 7.15398 69.0273 7.91384 69.0869 9.60414H67.5254C67.4481 8.96834 67.1852 8.51863 66.3813 8.51863H65.4514C64.7557 8.51863 64.431 8.8908 64.431 9.37153C64.431 9.85226 64.7402 10.1779 65.405 10.271L67.1388 10.4925C68.5458 10.6631 69.1951 11.4229 69.1951 12.6015C69.1951 14.1212 68.1902 14.9586 65.9638 14.9586C63.8104 14.9608 62.7656 14.1389 62.706 12.5262Z" fill="#5353D3"/>
  <path d="M70.2156 11.053C70.2156 8.75788 71.7926 7.16062 74.0675 7.16062C75.8919 7.16062 77.3298 8.10657 77.5617 10.0406H75.9692C75.8146 9.0636 75.1189 8.62939 74.4077 8.62939H73.6346C72.6429 8.62939 71.8389 9.71491 71.8389 11.0663C71.8389 12.4176 72.6429 13.5164 73.6346 13.5164H74.4077C74.8029 13.518 75.1843 13.3706 75.4763 13.1035C75.7684 12.8365 75.9498 12.4691 75.9847 12.0742H77.5771C77.3563 13.9817 75.9074 14.9741 74.0432 14.9741C71.7793 14.9608 70.2156 13.3481 70.2156 11.053Z" fill="#5353D3"/>
  <path d="M78.6086 11.0685C78.6086 8.81991 80.2629 7.16062 82.5511 7.16062C84.8393 7.16062 86.5113 8.8044 86.5113 11.0685C86.5113 13.3326 84.857 14.9608 82.5511 14.9608C80.2452 14.9608 78.6086 13.317 78.6086 11.0685ZM82.1182 13.4876H83.0017C84.0066 13.4876 84.8901 12.4176 84.8901 11.0685C84.8901 9.71934 84.0066 8.63161 83.0017 8.63161H82.1182C81.1133 8.63161 80.232 9.73928 80.232 11.0685C80.232 12.3977 81.1177 13.4876 82.1226 13.4876H82.1182Z" fill="#5353D3"/>
  <path d="M87.8586 12.0144V7.37994H89.482V11.7375C89.482 12.8075 90.0231 13.4433 90.7343 13.4433H91.6178C92.3754 13.4433 93.0557 12.7455 93.0557 11.7375V7.37994H94.6813V14.7459H93.102V13.738C92.6603 14.4978 91.8806 14.9631 90.6901 14.9631C88.9099 14.9608 87.8586 13.9218 87.8586 12.0144Z" fill="#5353D3"/>
  <path d="M97.3825 13.0224V8.81327H95.9601V7.37994H97.3825V5.31524H99.0213V7.37994H100.938V8.80662H99.0213V12.5594C99.0213 13.0401 99.1759 13.2727 99.7016 13.2727H101V14.7459H99.2334C98.0451 14.7437 97.3825 14.1234 97.3825 13.0224Z" fill="#5353D3"/>
</svg>
