<svg width="390" height="301" viewBox="0 0 390 301" fill="none" xmlns="http://www.w3.org/2000/svg">
<g clip-path="url(#clip0_108_1731)">
<path opacity="0.5" fill-rule="evenodd" clip-rule="evenodd" d="M11.25 -3.33791H42.75C49.35 -3.33791 54.6 1.91208 54.6 8.51208V40.0121C54.6 46.6121 49.35 51.8621 42.75 51.8621H11.25C9.68825 51.8822 8.13828 51.5895 6.69147 51.0011C5.24465 50.4127 3.93029 49.5406 2.82588 48.4362C1.72146 47.3318 0.849354 46.0174 0.260972 44.5706C-0.32741 43.1238 -0.620154 41.5738 -0.6 40.0121V8.51208C-0.6 1.91208 4.65 -3.33791 11.25 -3.33791ZM0.15 -2.58791C1.56741 -4.10223 3.28925 -5.29945 5.20234 -6.10088C7.11543 -6.90231 9.17647 -7.28981 11.25 -7.23791H42.75C46.9272 -7.23791 50.9332 -5.57854 53.8869 -2.62485C56.8406 0.328852 58.5 4.33492 58.5 8.51208V40.0121C58.5 44.1892 56.8406 48.1953 53.8869 51.149C50.9332 54.1027 46.9272 55.7621 42.75 55.7621H11.25C7.07284 55.7621 3.06677 54.1027 0.113069 51.149C-2.84063 48.1953 -4.5 44.1892 -4.5 40.0121V8.51208C-4.5 4.31208 -2.85 0.262085 0 -2.58791H0.15ZM11.25 80.6621H42.75C49.35 80.6621 54.6 85.9121 54.6 92.5121V124.012C54.6 130.612 49.35 135.862 42.75 135.862H11.25C9.68825 135.882 8.13828 135.589 6.69147 135.001C5.24465 134.413 3.93029 133.541 2.82588 132.436C1.72146 131.332 0.849354 130.017 0.260972 128.571C-0.32741 127.124 -0.620154 125.574 -0.6 124.012V92.5121C-0.6 85.9121 4.65 80.6621 11.25 80.6621ZM0.15 81.4121C3.15 78.4121 7.05 76.7621 11.25 76.7621H42.75C46.9272 76.7621 50.9332 78.4215 53.8869 81.3752C56.8406 84.3288 58.5 88.3349 58.5 92.5121V124.012C58.5 128.189 56.8406 132.195 53.8869 135.149C50.9332 138.103 46.9272 139.762 42.75 139.762H11.25C7.07284 139.762 3.06677 138.103 0.113069 135.149C-2.84063 132.195 -4.5 128.189 -4.5 124.012V92.5121C-4.5 88.3121 -2.85 84.2621 0 81.4121H0.15ZM42.75 164.662H11.25C9.68825 164.642 8.13828 164.935 6.69147 165.523C5.24465 166.111 3.93029 166.984 2.82588 168.088C1.72146 169.192 0.849354 170.507 0.260972 171.954C-0.32741 173.4 -0.620154 174.95 -0.6 176.512V208.012C-0.6 214.612 4.65 219.862 11.25 219.862H42.75C49.35 219.862 54.6 214.612 54.6 208.012V176.512C54.6 169.912 49.35 164.662 42.75 164.662ZM0.15 165.412C-2.85 168.412 -4.5 172.312 -4.5 176.512V208.012C-4.5 212.189 -2.84063 216.195 0.113069 219.149C3.06677 222.103 7.07284 223.762 11.25 223.762H42.75C46.9272 223.762 50.9332 222.103 53.8869 219.149C56.8406 216.195 58.5 212.189 58.5 208.012V176.512C58.5 172.335 56.8406 168.329 53.8869 165.375C50.9332 162.421 46.9272 160.762 42.75 160.762H11.25C7.05 160.762 3 162.412 0.15 165.262V165.412ZM11.25 248.662H42.75C49.35 248.662 54.6 253.912 54.6 260.512V292.012C54.6 298.612 49.35 303.862 42.75 303.862H11.25C9.68825 303.882 8.13828 303.589 6.69147 303.001C5.24465 302.413 3.93029 301.541 2.82588 300.436C1.72146 299.332 0.849354 298.017 0.260972 296.571C-0.32741 295.124 -0.620154 293.574 -0.6 292.012V260.512C-0.6 253.912 4.65 248.662 11.25 248.662ZM0.15 249.412C3.15 246.412 7.05 244.762 11.25 244.762H42.75C46.9272 244.762 50.9332 246.421 53.8869 249.375C56.8406 252.329 58.5 256.335 58.5 260.512V292.012C58.5 296.189 56.8406 300.195 53.8869 303.149C50.9332 306.103 46.9272 307.762 42.75 307.762H11.25C7.07284 307.762 3.06677 306.103 0.113069 303.149C-2.84063 300.195 -4.5 296.189 -4.5 292.012V260.512C-4.5 256.312 -2.85 252.262 0 249.412H0.15ZM126.75 38.6621H95.25C93.6883 38.6419 92.1383 38.9347 90.6915 39.5231C89.2447 40.1114 87.9303 40.9835 86.8259 42.088C85.7215 43.1924 84.8493 44.5067 84.261 45.9535C83.6726 47.4004 83.3798 48.9503 83.4 50.5121V82.0121C83.4 88.6121 88.65 93.8621 95.25 93.8621H126.75C133.35 93.8621 138.6 88.6121 138.6 82.0121V50.5121C138.6 43.9121 133.35 38.6621 126.75 38.6621ZM84.15 39.4121C81.15 42.4121 79.5 46.3121 79.5 50.5121V82.0121C79.5 86.1892 81.1594 90.1953 84.1131 93.149C87.0668 96.1027 91.0728 97.7621 95.25 97.7621H126.75C130.927 97.7621 134.933 96.1027 137.887 93.149C140.841 90.1953 142.5 86.1892 142.5 82.0121V50.5121C142.5 46.3349 140.841 42.3289 137.887 39.3752C134.933 36.4215 130.927 34.7621 126.75 34.7621H95.25C91.05 34.7621 87 36.4121 84.15 39.2621V39.4121ZM95.25 122.662H126.75C128.024 122.662 129.29 122.864 130.5 123.262V119.212C129.274 118.905 128.014 118.753 126.75 118.762H95.25C91.0728 118.762 87.0668 120.421 84.1131 123.375C81.1594 126.329 79.5 130.335 79.5 134.512V166.012C79.5 170.189 81.1594 174.195 84.1131 177.149C87.0668 180.103 91.0728 181.762 95.25 181.762H126.75C127.95 181.762 129.3 181.612 130.5 181.312V177.262C129.29 177.66 128.024 177.862 126.75 177.862H95.25C93.6883 177.882 92.1383 177.589 90.6915 177.001C89.2447 176.413 87.9303 175.541 86.8259 174.436C85.7215 173.332 84.8493 172.017 84.261 170.571C83.6726 169.124 83.3798 167.574 83.4 166.012V134.512C83.4 127.912 88.65 122.662 95.25 122.662ZM163.5 204.262V208.162C163.5 212.339 165.159 216.345 168.113 219.299C171.067 222.253 175.073 223.912 179.25 223.912H210.75C214.927 223.912 218.933 222.253 221.887 219.299C224.841 216.345 226.5 212.339 226.5 208.162V204.262H222.6V208.162C222.6 214.762 217.35 220.012 210.75 220.012H179.25C177.675 220.033 176.113 219.735 174.656 219.138C173.199 218.54 171.878 217.655 170.771 216.534C169.665 215.414 168.796 214.081 168.216 212.617C167.637 211.153 167.359 209.586 167.4 208.012V204.262H163.5ZM261 181.612L263.25 181.762H294.75C298.927 181.762 302.933 180.103 305.887 177.149C308.841 174.195 310.5 170.189 310.5 166.012V134.512C310.5 130.335 308.841 126.329 305.887 123.375C302.933 120.421 298.927 118.762 294.75 118.762H263.25L261 118.912V122.962L263.25 122.662H294.75C301.35 122.662 306.6 127.912 306.6 134.512V166.012C306.6 172.612 301.35 177.862 294.75 177.862H263.25C262.5 177.862 261.75 177.862 261 177.562V181.612ZM226.5 96.2621V92.5121C226.5 88.3349 224.841 84.3288 221.887 81.3752C218.933 78.4215 214.927 76.7621 210.75 76.7621H179.25C175.073 76.7621 171.067 78.4215 168.113 81.3752C165.159 84.3288 163.5 88.3349 163.5 92.5121V96.2621H167.4V92.5121C167.4 85.9121 172.65 80.6621 179.25 80.6621H210.75C217.35 80.6621 222.6 85.9121 222.6 92.5121V96.2621H226.5ZM126.75 206.662H95.25C93.6883 206.642 92.1383 206.935 90.6915 207.523C89.2447 208.111 87.9303 208.984 86.8259 210.088C85.7215 211.192 84.8493 212.507 84.261 213.954C83.6726 215.4 83.3798 216.95 83.4 218.512V250.012C83.4 256.612 88.65 261.862 95.25 261.862H126.75C133.35 261.862 138.6 256.612 138.6 250.012V218.512C138.6 211.912 133.35 206.662 126.75 206.662ZM84.15 207.412C81.15 210.412 79.5 214.312 79.5 218.512V250.012C79.5 254.189 81.1594 258.195 84.1131 261.149C87.0668 264.103 91.0728 265.762 95.25 265.762H126.75C130.927 265.762 134.933 264.103 137.887 261.149C140.841 258.195 142.5 254.189 142.5 250.012V218.512C142.5 214.335 140.841 210.329 137.887 207.375C134.933 204.421 130.927 202.762 126.75 202.762H95.25C91.05 202.762 87 204.412 84.15 207.262V207.412ZM179.25 -3.33791H210.75C217.35 -3.33791 222.6 1.91208 222.6 8.51208V40.0121C222.6 46.6121 217.35 51.8621 210.75 51.8621H179.25C177.688 51.8822 176.138 51.5895 174.691 51.0011C173.245 50.4127 171.93 49.5406 170.826 48.4362C169.721 47.3318 168.849 46.0174 168.261 44.5706C167.673 43.1238 167.38 41.5738 167.4 40.0121V8.51208C167.4 1.91208 172.65 -3.33791 179.25 -3.33791ZM168.15 -2.58791C171.15 -5.58791 175.05 -7.23791 179.25 -7.23791H210.75C214.927 -7.23791 218.933 -5.57854 221.887 -2.62485C224.841 0.328852 226.5 4.33492 226.5 8.51208V40.0121C226.5 44.1892 224.841 48.1953 221.887 51.149C218.933 54.1027 214.927 55.7621 210.75 55.7621H179.25C175.073 55.7621 171.067 54.1027 168.113 51.149C165.159 48.1953 163.5 44.1892 163.5 40.0121V8.51208C163.5 4.31208 165.15 0.262085 168 -2.58791H168.15ZM179.25 248.662C177.688 248.642 176.138 248.935 174.691 249.523C173.245 250.111 171.93 250.984 170.826 252.088C169.721 253.192 168.849 254.507 168.261 255.954C167.673 257.4 167.38 258.95 167.4 260.512V292.012C167.4 298.612 172.65 303.862 179.25 303.862H210.75C217.35 303.862 222.6 298.612 222.6 292.012V260.512C222.6 253.912 217.35 248.662 210.75 248.662H179.25ZM168.15 249.412C165.15 252.412 163.5 256.312 163.5 260.512V292.012C163.5 296.189 165.159 300.195 168.113 303.149C171.067 306.103 175.073 307.762 179.25 307.762H210.75C214.927 307.762 218.933 306.103 221.887 303.149C224.841 300.195 226.5 296.189 226.5 292.012V260.512C226.5 256.335 224.841 252.329 221.887 249.375C218.933 246.421 214.927 244.762 210.75 244.762H179.25C175.05 244.762 171 246.412 168.15 249.262V249.412ZM263.25 38.6621H294.75C301.35 38.6621 306.6 43.9121 306.6 50.5121V82.0121C306.6 88.6121 301.35 93.8621 294.75 93.8621H263.25C261.688 93.8822 260.138 93.5895 258.691 93.0011C257.245 92.4127 255.93 91.5406 254.826 90.4362C253.721 89.3318 252.849 88.0174 252.261 86.5706C251.673 85.1238 251.38 83.5738 251.4 82.0121V50.5121C251.4 43.9121 256.65 38.6621 263.25 38.6621ZM252.15 39.4121C255.15 36.4121 259.05 34.7621 263.25 34.7621H294.75C296.818 34.7621 298.866 35.1695 300.777 35.961C302.688 36.7525 304.424 37.9126 305.887 39.3752C307.349 40.8377 308.51 42.5739 309.301 44.4848C310.093 46.3957 310.5 48.4438 310.5 50.5121V82.0121C310.5 86.1892 308.841 90.1953 305.887 93.149C302.933 96.1027 298.927 97.7621 294.75 97.7621H263.25C259.073 97.7621 255.067 96.1027 252.113 93.149C249.159 90.1953 247.5 86.1892 247.5 82.0121V50.5121C247.5 46.3121 249.15 42.2621 252 39.4121H252.15ZM263.25 206.662H294.75C301.35 206.662 306.6 211.912 306.6 218.512V250.012C306.6 256.612 301.35 261.862 294.75 261.862H263.25C261.688 261.882 260.138 261.589 258.691 261.001C257.245 260.413 255.93 259.541 254.826 258.436C253.721 257.332 252.849 256.017 252.261 254.571C251.673 253.124 251.38 251.574 251.4 250.012V218.512C251.4 211.912 256.65 206.662 263.25 206.662ZM252.15 207.412C255.15 204.412 259.05 202.762 263.25 202.762H294.75C298.927 202.762 302.933 204.421 305.887 207.375C308.841 210.329 310.5 214.335 310.5 218.512V250.012C310.5 254.189 308.841 258.195 305.887 261.149C302.933 264.103 298.927 265.762 294.75 265.762H263.25C259.073 265.762 255.067 264.103 252.113 261.149C249.159 258.195 247.5 254.189 247.5 250.012V218.512C247.5 214.312 249.15 210.262 252 207.412H252.15ZM378.75 -3.33791H347.25C345.688 -3.35807 344.138 -3.06532 342.691 -2.47694C341.245 -1.88856 339.93 -1.01645 338.826 0.0879622C337.721 1.19238 336.849 2.50674 336.261 3.95355C335.673 5.40036 335.38 6.95034 335.4 8.51208V40.0121C335.4 46.6121 340.65 51.8621 347.25 51.8621H378.75C385.35 51.8621 390.6 46.6121 390.6 40.0121V8.51208C390.6 1.91208 385.35 -3.33791 378.75 -3.33791ZM336.15 -2.58791C333.15 0.412085 331.5 4.31208 331.5 8.51208V40.0121C331.5 44.1892 333.159 48.1953 336.113 51.149C339.067 54.1027 343.073 55.7621 347.25 55.7621H378.75C382.927 55.7621 386.933 54.1027 389.887 51.149C392.841 48.1953 394.5 44.1892 394.5 40.0121V8.51208C394.5 4.33492 392.841 0.328852 389.887 -2.62485C386.933 -5.57854 382.927 -7.23791 378.75 -7.23791H347.25C343.05 -7.23791 339 -5.58791 336.15 -2.73792V-2.58791ZM347.25 80.6621H378.75C385.35 80.6621 390.6 85.9121 390.6 92.5121V124.012C390.6 130.612 385.35 135.862 378.75 135.862H347.25C345.688 135.882 344.138 135.589 342.691 135.001C341.245 134.413 339.93 133.541 338.826 132.436C337.721 131.332 336.849 130.017 336.261 128.571C335.673 127.124 335.38 125.574 335.4 124.012V92.5121C335.4 85.9121 340.65 80.6621 347.25 80.6621ZM336.15 81.4121C339.15 78.4121 343.05 76.7621 347.25 76.7621H378.75C382.927 76.7621 386.933 78.4215 389.887 81.3752C392.841 84.3288 394.5 88.3349 394.5 92.5121V124.012C394.5 128.189 392.841 132.195 389.887 135.149C386.933 138.103 382.927 139.762 378.75 139.762H347.25C343.073 139.762 339.067 138.103 336.113 135.149C333.159 132.195 331.5 128.189 331.5 124.012V92.5121C331.5 88.3121 333.15 84.2621 336 81.4121H336.15ZM378.75 164.662H347.25C345.688 164.642 344.138 164.935 342.691 165.523C341.245 166.111 339.93 166.984 338.826 168.088C337.721 169.192 336.849 170.507 336.261 171.954C335.673 173.4 335.38 174.95 335.4 176.512V208.012C335.4 214.612 340.65 219.862 347.25 219.862H378.75C385.35 219.862 390.6 214.612 390.6 208.012V176.512C390.6 169.912 385.35 164.662 378.75 164.662ZM336.15 165.412C333.15 168.412 331.5 172.312 331.5 176.512V208.012C331.5 212.189 333.159 216.195 336.113 219.149C339.067 222.103 343.073 223.762 347.25 223.762H378.75C382.927 223.762 386.933 222.103 389.887 219.149C392.841 216.195 394.5 212.189 394.5 208.012V176.512C394.5 172.335 392.841 168.329 389.887 165.375C386.933 162.421 382.927 160.762 378.75 160.762H347.25C343.05 160.762 339 162.412 336.15 165.262V165.412ZM347.25 248.662H378.75C385.35 248.662 390.6 253.912 390.6 260.512V292.012C390.6 298.612 385.35 303.862 378.75 303.862H347.25C345.688 303.882 344.138 303.589 342.691 303.001C341.245 302.413 339.93 301.541 338.826 300.436C337.721 299.332 336.849 298.017 336.261 296.571C335.673 295.124 335.38 293.574 335.4 292.012V260.512C335.4 253.912 340.65 248.662 347.25 248.662ZM336.15 249.412C339.15 246.412 343.05 244.762 347.25 244.762H378.75C382.927 244.762 386.933 246.421 389.887 249.375C392.841 252.329 394.5 256.335 394.5 260.512V292.012C394.5 296.189 392.841 300.195 389.887 303.149C386.933 306.103 382.927 307.762 378.75 307.762H347.25C343.073 307.762 339.067 306.103 336.113 303.149C333.159 300.195 331.5 296.189 331.5 292.012V260.512C331.5 256.312 333.15 252.262 336 249.412H336.15Z" fill="url(#paint0_radial_108_1731)"/>
<path fill-rule="evenodd" clip-rule="evenodd" d="M153 102.262H237C241.774 102.262 246.352 104.159 249.728 107.534C253.104 110.91 255 115.488 255 120.262V180.262C255 185.036 253.104 189.614 249.728 192.99C246.352 196.366 241.774 198.262 237 198.262H153C148.226 198.262 143.648 196.366 140.272 192.99C136.896 189.614 135 185.036 135 180.262V120.262C135 115.488 136.896 110.91 140.272 107.534C143.648 104.159 148.226 102.262 153 102.262ZM123 120.262C123 103.762 136.5 90.2621 153 90.2621H237C253.5 90.2621 267 103.762 267 120.262V180.262C267 196.762 253.5 210.262 237 210.262H153C136.5 210.262 123 196.762 123 180.262V120.262ZM150.9 149.662C150.605 149.382 150.37 149.044 150.21 148.671C150.049 148.297 149.966 147.894 149.966 147.487C149.966 147.08 150.049 146.678 150.21 146.304C150.37 145.93 150.605 145.592 150.9 145.312L156.15 140.062C156.75 139.462 156.75 138.562 156.15 137.962L150.9 132.562C150.35 132.001 150.042 131.247 150.042 130.462C150.042 129.677 150.35 128.923 150.9 128.362L155.1 124.162C155.661 123.612 156.415 123.305 157.2 123.305C157.985 123.305 158.739 123.612 159.3 124.162L164.7 129.412C165.3 130.012 166.2 130.012 166.8 129.412L172.05 124.162C172.33 123.867 172.668 123.632 173.042 123.472C173.415 123.311 173.818 123.228 174.225 123.228C174.632 123.228 175.035 123.311 175.408 123.472C175.782 123.632 176.12 123.867 176.4 124.162L180.6 128.362C181.8 129.562 181.8 131.362 180.6 132.562L175.2 137.962C174.925 138.242 174.771 138.619 174.771 139.012C174.771 139.405 174.925 139.782 175.2 140.062L180.6 145.312C181.8 146.512 181.8 148.312 180.6 149.662L176.4 153.862C176.12 154.157 175.782 154.392 175.408 154.553C175.035 154.713 174.632 154.796 174.225 154.796C173.818 154.796 173.415 154.713 173.042 154.553C172.668 154.392 172.33 154.157 172.05 153.862L166.8 148.462C166.52 148.187 166.143 148.033 165.75 148.033C165.357 148.033 164.98 148.187 164.7 148.462L159.3 153.862C158.739 154.412 157.985 154.72 157.2 154.72C156.415 154.72 155.661 154.412 155.1 153.862L150.9 149.662ZM208.8 145.312C208.505 145.592 208.27 145.93 208.11 146.304C207.949 146.678 207.866 147.08 207.866 147.487C207.866 147.894 207.949 148.297 208.11 148.671C208.27 149.044 208.505 149.382 208.8 149.662L213 153.862C214.2 155.062 216 155.062 217.35 153.862L222.6 148.462C222.88 148.187 223.257 148.033 223.65 148.033C224.043 148.033 224.42 148.187 224.7 148.462L230.1 153.862C231.15 155.062 233.1 155.062 234.3 153.862L238.5 149.662C239.7 148.462 239.7 146.662 238.5 145.312L233.25 140.062C232.975 139.782 232.821 139.405 232.821 139.012C232.821 138.619 232.975 138.242 233.25 137.962L238.5 132.562C239.7 131.512 239.7 129.562 238.5 128.362L234.3 124.162C233.739 123.612 232.985 123.305 232.2 123.305C231.415 123.305 230.661 123.612 230.1 124.162L224.7 129.412C224.42 129.687 224.043 129.841 223.65 129.841C223.257 129.841 222.88 129.687 222.6 129.412L217.35 124.162C217.07 123.867 216.732 123.632 216.358 123.472C215.985 123.311 215.582 123.228 215.175 123.228C214.768 123.228 214.365 123.311 213.992 123.472C213.618 123.632 213.28 123.867 213 124.162L208.8 128.362C208.25 128.923 207.942 129.677 207.942 130.462C207.942 131.247 208.25 132.001 208.8 132.562L214.05 137.962C214.65 138.562 214.65 139.462 214.05 140.062L208.8 145.312ZM173.7 184.312C171.45 185.212 168.6 184.462 167.4 182.362L166.05 179.662C165.745 179.149 165.554 178.576 165.488 177.983C165.422 177.389 165.483 176.789 165.668 176.221C165.852 175.653 166.156 175.131 166.558 174.69C166.96 174.249 167.452 173.898 168 173.662C176.341 169.884 185.393 167.93 194.55 167.93C203.707 167.93 212.759 169.884 221.1 173.662C223.35 174.712 224.1 177.412 222.9 179.662L221.55 182.362C220.35 184.462 217.65 185.362 215.4 184.312C208.818 181.464 201.722 179.994 194.55 179.994C187.378 179.994 180.282 181.464 173.7 184.312Z" fill="#5353D3"/>
</g>
<defs>
<radialGradient id="paint0_radial_108_1731" cx="0" cy="0" r="1" gradientUnits="userSpaceOnUse" gradientTransform="translate(189.23 150.262) rotate(90) scale(157.5 193.73)">
<stop stop-color="#5353D3" stop-opacity="0.8"/>
<stop offset="1" stop-color="#5353D3" stop-opacity="0"/>
</radialGradient>
<clipPath id="clip0_108_1731">
<rect width="390" height="300" fill="white" transform="translate(0 0.262085)"/>
</clipPath>
</defs>
</svg>
