<svg width="390" height="300" viewBox="0 0 390 300" fill="none" xmlns="http://www.w3.org/2000/svg">
<g clip-path="url(#clip0_103_1487)">
<path opacity="0.5" fill-rule="evenodd" clip-rule="evenodd" d="M42.75 -3.6H11.25C9.68825 -3.62015 8.13828 -3.32741 6.69147 -2.73903C5.24465 -2.15065 3.93029 -1.27854 2.82588 -0.174123C1.72146 0.93029 0.849354 2.24465 0.260972 3.69147C-0.32741 5.13828 -0.620154 6.68825 -0.6 8.25V39.75C-0.6 46.35 4.65 51.6 11.25 51.6H42.75C49.35 51.6 54.6 46.35 54.6 39.75V8.25C54.6 1.65 49.35 -3.6 42.75 -3.6ZM11.25 -7.5C7.07284 -7.5 3.06677 -5.84063 0.113069 -2.88693C-2.84063 0.0667663 -4.5 4.07284 -4.5 8.25L-4.5 39.75C-4.5 43.9272 -2.84063 47.9332 0.113069 50.8869C3.06677 53.8406 7.07284 55.5 11.25 55.5H42.75C46.9272 55.5 50.9332 53.8406 53.8869 50.8869C56.8406 47.9332 58.5 43.9272 58.5 39.75V8.25C58.5 4.07284 56.8406 0.0667663 53.8869 -2.88693C50.9332 -5.84063 46.9272 -7.5 42.75 -7.5H11.25ZM42.75 80.4H11.25C9.68825 80.3798 8.13828 80.6726 6.69147 81.261C5.24465 81.8493 3.93029 82.7215 2.82588 83.8259C1.72146 84.9303 0.849354 86.2447 0.260972 87.6915C-0.32741 89.1383 -0.620154 90.6883 -0.6 92.25V123.75C-0.6 130.35 4.65 135.6 11.25 135.6H42.75C49.35 135.6 54.6 130.35 54.6 123.75V92.25C54.6 85.65 49.35 80.4 42.75 80.4ZM11.25 76.5C7.07284 76.5 3.06677 78.1594 0.113069 81.1131C-2.84063 84.0668 -4.5 88.0728 -4.5 92.25L-4.5 123.75C-4.5 127.927 -2.84063 131.933 0.113069 134.887C3.06677 137.841 7.07284 139.5 11.25 139.5H42.75C46.9272 139.5 50.9332 137.841 53.8869 134.887C56.8406 131.933 58.5 127.927 58.5 123.75V92.25C58.5 88.0728 56.8406 84.0668 53.8869 81.1131C50.9332 78.1594 46.9272 76.5 42.75 76.5H11.25ZM11.25 164.4H42.75C49.35 164.4 54.6 169.65 54.6 176.25V207.75C54.6 214.35 49.35 219.6 42.75 219.6H11.25C9.68825 219.62 8.13828 219.327 6.69147 218.739C5.24465 218.151 3.93029 217.279 2.82588 216.174C1.72146 215.07 0.849354 213.755 0.260972 212.309C-0.32741 210.862 -0.620154 209.312 -0.6 207.75V176.25C-0.6 169.65 4.65 164.4 11.25 164.4ZM-4.5 176.25C-4.5 172.073 -2.84063 168.067 0.113069 165.113C3.06677 162.159 7.07284 160.5 11.25 160.5H42.75C46.9272 160.5 50.9332 162.159 53.8869 165.113C56.8406 168.067 58.5 172.073 58.5 176.25V207.75C58.5 211.927 56.8406 215.933 53.8869 218.887C50.9332 221.841 46.9272 223.5 42.75 223.5H11.25C7.07284 223.5 3.06677 221.841 0.113069 218.887C-2.84063 215.933 -4.5 211.927 -4.5 207.75L-4.5 176.25ZM42.75 248.4H11.25C9.68825 248.38 8.13828 248.673 6.69147 249.261C5.24465 249.849 3.93029 250.721 2.82588 251.826C1.72146 252.93 0.849354 254.245 0.260972 255.691C-0.32741 257.138 -0.620154 258.688 -0.6 260.25V291.75C-0.6 298.35 4.65 303.6 11.25 303.6H42.75C49.35 303.6 54.6 298.35 54.6 291.75V260.25C54.6 253.65 49.35 248.4 42.75 248.4ZM11.25 244.5C7.07284 244.5 3.06677 246.159 0.113069 249.113C-2.84063 252.067 -4.5 256.073 -4.5 260.25L-4.5 291.75C-4.5 295.927 -2.84063 299.933 0.113069 302.887C3.06677 305.841 7.07284 307.5 11.25 307.5H42.75C46.9272 307.5 50.9332 305.841 53.8869 302.887C56.8406 299.933 58.5 295.927 58.5 291.75V260.25C58.5 256.073 56.8406 252.067 53.8869 249.113C50.9332 246.159 46.9272 244.5 42.75 244.5H11.25ZM95.25 38.4H126.75C133.35 38.4 138.6 43.65 138.6 50.25V81.75C138.6 88.35 133.35 93.6 126.75 93.6H95.25C93.6883 93.6202 92.1383 93.3274 90.6915 92.739C89.2447 92.1507 87.9303 91.2785 86.8259 90.1741C85.7215 89.0697 84.8493 87.7553 84.261 86.3085C83.6726 84.8617 83.3798 83.3117 83.4 81.75V50.25C83.4 43.65 88.65 38.4 95.25 38.4ZM79.5 50.25C79.5 46.0728 81.1594 42.0668 84.1131 39.1131C87.0668 36.1594 91.0728 34.5 95.25 34.5H126.75C130.927 34.5 134.933 36.1594 137.887 39.1131C140.841 42.0668 142.5 46.0728 142.5 50.25V81.75C142.5 85.9272 140.841 89.9332 137.887 92.8869C134.933 95.8406 130.927 97.5 126.75 97.5H95.25C91.0728 97.5 87.0668 95.8406 84.1131 92.8869C81.1594 89.9332 79.5 85.9272 79.5 81.75V50.25ZM126.75 122.4H95.25C93.6883 122.38 92.1383 122.673 90.6915 123.261C89.2447 123.849 87.9303 124.721 86.8259 125.826C85.7215 126.93 84.8493 128.245 84.261 129.691C83.6726 131.138 83.3798 132.688 83.4 134.25V165.75C83.4 172.35 88.65 177.6 95.25 177.6H126.75C133.35 177.6 138.6 172.35 138.6 165.75V162.3C139.232 165.44 140.187 168.506 141.45 171.45C140.3 174.413 138.28 176.958 135.657 178.752C133.033 180.546 129.928 181.504 126.75 181.5H95.25C91.0728 181.5 87.0668 179.841 84.1131 176.887C81.1594 173.933 79.5 169.927 79.5 165.75V134.25C79.5 130.073 81.1594 126.067 84.1131 123.113C87.0668 120.159 91.0728 118.5 95.25 118.5H126.75C133.35 118.5 139.05 122.55 141.45 128.55C140.1 131.4 139.2 134.55 138.45 137.55V134.25C138.45 127.65 133.35 122.4 126.75 122.4ZM226.5 101.55V92.25C226.5 88.0728 224.841 84.0668 221.887 81.1131C218.933 78.1594 214.927 76.5 210.75 76.5H179.25C175.073 76.5 171.067 78.1594 168.113 81.1131C165.159 84.0668 163.5 88.0728 163.5 92.25V101.55L167.4 99.15V92.25C167.4 85.65 172.65 80.4 179.25 80.4H210.75C217.35 80.4 222.6 85.65 222.6 92.25V99.15L226.5 101.55ZM248.55 171.45C249.7 174.413 251.72 176.958 254.343 178.752C256.967 180.546 260.072 181.504 263.25 181.5H294.75C298.927 181.5 302.933 179.841 305.887 176.887C308.841 173.933 310.5 169.927 310.5 165.75V134.25C310.5 130.073 308.841 126.067 305.887 123.113C302.933 120.159 298.927 118.5 294.75 118.5H263.25C260.072 118.496 256.967 119.454 254.343 121.248C251.72 123.042 249.7 125.587 248.55 128.55C249.9 131.4 250.8 134.55 251.55 137.55V134.25C251.55 127.65 256.65 122.4 263.25 122.4H294.75C301.35 122.4 306.6 127.65 306.6 134.25V165.75C306.6 172.35 301.35 177.6 294.75 177.6H263.25C261.688 177.62 260.138 177.327 258.691 176.739C257.245 176.151 255.93 175.279 254.826 174.174C253.721 173.07 252.849 171.755 252.261 170.309C251.673 168.862 251.38 167.312 251.4 165.75V162.3C250.768 165.44 249.813 168.506 248.55 171.45ZM163.5 198.45V207.9C163.5 212.077 165.159 216.083 168.113 219.037C171.067 221.991 175.073 223.65 179.25 223.65H210.75C214.927 223.65 218.933 221.991 221.887 219.037C224.841 216.083 226.5 212.077 226.5 207.9V198.6L222.6 200.85V207.9C222.6 214.5 217.35 219.75 210.75 219.75H179.25C177.675 219.771 176.113 219.473 174.656 218.876C173.199 218.278 171.878 217.392 170.771 216.272C169.665 215.151 168.796 213.819 168.216 212.355C167.637 210.89 167.359 209.324 167.4 207.75V201L163.5 198.75V198.45ZM95.25 206.4H126.75C133.35 206.4 138.6 211.65 138.6 218.25V249.75C138.6 256.35 133.35 261.6 126.75 261.6H95.25C93.6883 261.62 92.1383 261.327 90.6915 260.739C89.2447 260.151 87.9303 259.279 86.8259 258.174C85.7215 257.07 84.8493 255.755 84.261 254.309C83.6726 252.862 83.3798 251.312 83.4 249.75V218.25C83.4 211.65 88.65 206.4 95.25 206.4ZM79.5 218.25C79.5 214.073 81.1594 210.067 84.1131 207.113C87.0668 204.159 91.0728 202.5 95.25 202.5H126.75C130.927 202.5 134.933 204.159 137.887 207.113C140.841 210.067 142.5 214.073 142.5 218.25V249.75C142.5 253.927 140.841 257.933 137.887 260.887C134.933 263.841 130.927 265.5 126.75 265.5H95.25C91.0728 265.5 87.0668 263.841 84.1131 260.887C81.1594 257.933 79.5 253.927 79.5 249.75V218.25ZM210.75 -3.6H179.25C177.688 -3.62015 176.138 -3.32741 174.691 -2.73903C173.245 -2.15065 171.93 -1.27854 170.826 -0.174123C169.721 0.93029 168.849 2.24465 168.261 3.69147C167.673 5.13828 167.38 6.68825 167.4 8.25V39.75C167.4 46.35 172.65 51.6 179.25 51.6H210.75C217.35 51.6 222.6 46.35 222.6 39.75V8.25C222.6 1.65 217.35 -3.6 210.75 -3.6ZM179.25 -7.5C175.073 -7.5 171.067 -5.84063 168.113 -2.88693C165.159 0.0667663 163.5 4.07284 163.5 8.25V39.75C163.5 43.9272 165.159 47.9332 168.113 50.8869C171.067 53.8406 175.073 55.5 179.25 55.5H210.75C214.927 55.5 218.933 53.8406 221.887 50.8869C224.841 47.9332 226.5 43.9272 226.5 39.75V8.25C226.5 4.07284 224.841 0.0667663 221.887 -2.88693C218.933 -5.84063 214.927 -7.5 210.75 -7.5H179.25ZM167.4 260.25C167.4 253.65 172.65 248.4 179.25 248.4H210.75C217.35 248.4 222.6 253.65 222.6 260.25V291.75C222.6 298.35 217.35 303.6 210.75 303.6H179.25C177.688 303.62 176.138 303.327 174.691 302.739C173.245 302.151 171.93 301.279 170.826 300.174C169.721 299.07 168.849 297.755 168.261 296.309C167.673 294.862 167.38 293.312 167.4 291.75V260.25ZM163.5 260.25C163.5 256.073 165.159 252.067 168.113 249.113C171.067 246.159 175.073 244.5 179.25 244.5H210.75C214.927 244.5 218.933 246.159 221.887 249.113C224.841 252.067 226.5 256.073 226.5 260.25V291.75C226.5 295.927 224.841 299.933 221.887 302.887C218.933 305.841 214.927 307.5 210.75 307.5H179.25C175.073 307.5 171.067 305.841 168.113 302.887C165.159 299.933 163.5 295.927 163.5 291.75V260.25ZM294.75 38.4H263.25C261.688 38.3798 260.138 38.6726 258.691 39.261C257.245 39.8494 255.93 40.7215 254.826 41.8259C253.721 42.9303 252.849 44.2447 252.261 45.6915C251.673 47.1383 251.38 48.6883 251.4 50.25V81.75C251.4 88.35 256.65 93.6 263.25 93.6H294.75C301.35 93.6 306.6 88.35 306.6 81.75V50.25C306.6 43.65 301.35 38.4 294.75 38.4ZM263.25 34.5C261.182 34.5 259.134 34.9074 257.223 35.6989C255.312 36.4904 253.576 37.6505 252.113 39.1131C250.651 40.5756 249.49 42.3119 248.699 44.2227C247.907 46.1336 247.5 48.1817 247.5 50.25V81.75C247.5 85.9272 249.159 89.9332 252.113 92.8869C255.067 95.8406 259.073 97.5 263.25 97.5H294.75C298.927 97.5 302.933 95.8406 305.887 92.8869C308.841 89.9332 310.5 85.9272 310.5 81.75V50.25C310.5 46.0728 308.841 42.0668 305.887 39.1131C302.933 36.1594 298.927 34.5 294.75 34.5H263.25ZM294.75 206.4H263.25C261.688 206.38 260.138 206.673 258.691 207.261C257.245 207.849 255.93 208.721 254.826 209.826C253.721 210.93 252.849 212.245 252.261 213.691C251.673 215.138 251.38 216.688 251.4 218.25V249.75C251.4 256.35 256.65 261.6 263.25 261.6H294.75C301.35 261.6 306.6 256.35 306.6 249.75V218.25C306.6 211.65 301.35 206.4 294.75 206.4ZM263.25 202.5C259.073 202.5 255.067 204.159 252.113 207.113C249.159 210.067 247.5 214.073 247.5 218.25V249.75C247.5 253.927 249.159 257.933 252.113 260.887C255.067 263.841 259.073 265.5 263.25 265.5H294.75C298.927 265.5 302.933 263.841 305.887 260.887C308.841 257.933 310.5 253.927 310.5 249.75V218.25C310.5 214.073 308.841 210.067 305.887 207.113C302.933 204.159 298.927 202.5 294.75 202.5H263.25ZM347.25 -3.6H378.75C385.35 -3.6 390.6 1.65 390.6 8.25V39.75C390.6 46.35 385.35 51.6 378.75 51.6H347.25C345.688 51.6202 344.138 51.3274 342.691 50.739C341.245 50.1506 339.93 49.2785 338.826 48.1741C337.721 47.0697 336.849 45.7553 336.261 44.3085C335.673 42.8617 335.38 41.3117 335.4 39.75V8.25C335.4 1.65 340.65 -3.6 347.25 -3.6ZM331.5 8.25C331.5 4.07284 333.159 0.0667663 336.113 -2.88693C339.067 -5.84063 343.073 -7.5 347.25 -7.5H378.75C382.927 -7.5 386.933 -5.84063 389.887 -2.88693C392.841 0.0667663 394.5 4.07284 394.5 8.25V39.75C394.5 43.9272 392.841 47.9332 389.887 50.8869C386.933 53.8406 382.927 55.5 378.75 55.5H347.25C343.073 55.5 339.067 53.8406 336.113 50.8869C333.159 47.9332 331.5 43.9272 331.5 39.75V8.25ZM378.75 80.4H347.25C345.688 80.3798 344.138 80.6726 342.691 81.261C341.245 81.8493 339.93 82.7215 338.826 83.8259C337.721 84.9303 336.849 86.2447 336.261 87.6915C335.673 89.1383 335.38 90.6883 335.4 92.25V123.75C335.4 130.35 340.65 135.6 347.25 135.6H378.75C385.35 135.6 390.6 130.35 390.6 123.75V92.25C390.6 85.65 385.35 80.4 378.75 80.4ZM347.25 76.5C343.073 76.5 339.067 78.1594 336.113 81.1131C333.159 84.0668 331.5 88.0728 331.5 92.25V123.75C331.5 127.927 333.159 131.933 336.113 134.887C339.067 137.841 343.073 139.5 347.25 139.5H378.75C382.927 139.5 386.933 137.841 389.887 134.887C392.841 131.933 394.5 127.927 394.5 123.75V92.25C394.5 88.0728 392.841 84.0668 389.887 81.1131C386.933 78.1594 382.927 76.5 378.75 76.5H347.25ZM347.25 164.4H378.75C385.35 164.4 390.6 169.65 390.6 176.25V207.75C390.6 214.35 385.35 219.6 378.75 219.6H347.25C345.688 219.62 344.138 219.327 342.691 218.739C341.245 218.151 339.93 217.279 338.826 216.174C337.721 215.07 336.849 213.755 336.261 212.309C335.673 210.862 335.38 209.312 335.4 207.75V176.25C335.4 169.65 340.65 164.4 347.25 164.4ZM331.5 176.25C331.5 172.073 333.159 168.067 336.113 165.113C339.067 162.159 343.073 160.5 347.25 160.5H378.75C382.927 160.5 386.933 162.159 389.887 165.113C392.841 168.067 394.5 172.073 394.5 176.25V207.75C394.5 211.927 392.841 215.933 389.887 218.887C386.933 221.841 382.927 223.5 378.75 223.5H347.25C343.073 223.5 339.067 221.841 336.113 218.887C333.159 215.933 331.5 211.927 331.5 207.75V176.25ZM378.75 248.4H347.25C345.688 248.38 344.138 248.673 342.691 249.261C341.245 249.849 339.93 250.721 338.826 251.826C337.721 252.93 336.849 254.245 336.261 255.691C335.673 257.138 335.38 258.688 335.4 260.25V291.75C335.4 298.35 340.65 303.6 347.25 303.6H378.75C385.35 303.6 390.6 298.35 390.6 291.75V260.25C390.6 253.65 385.35 248.4 378.75 248.4ZM347.25 244.5C343.073 244.5 339.067 246.159 336.113 249.113C333.159 252.067 331.5 256.073 331.5 260.25V291.75C331.5 295.927 333.159 299.933 336.113 302.887C339.067 305.841 343.073 307.5 347.25 307.5H378.75C382.927 307.5 386.933 305.841 389.887 302.887C392.841 299.933 394.5 295.927 394.5 291.75V260.25C394.5 256.073 392.841 252.067 389.887 249.113C386.933 246.159 382.927 244.5 378.75 244.5H347.25Z" fill="url(#paint0_radial_103_1487)"/>
<path d="M141.75 111C144 108 148.5 109.5 148.5 113.4V114C148.5 116.785 149.606 119.455 151.575 121.425C153.545 123.394 156.215 124.5 159 124.5H231C233.785 124.5 236.455 123.394 238.425 121.425C240.394 119.455 241.5 116.785 241.5 114V113.4C241.5 109.65 246 107.85 248.25 111C248.7 111.6 249 112.5 249 113.4V114C249 118.774 247.104 123.352 243.728 126.728C240.352 130.104 235.774 132 231 132H159C154.226 132 149.648 130.104 146.272 126.728C142.896 123.352 141 118.774 141 114V113.4C141 112.5 141.3 111.6 141.75 111ZM248.25 189C248.7 188.4 249 187.5 249 186.6V186C249 181.226 247.104 176.648 243.728 173.272C240.352 169.896 235.774 168 231 168H159C154.226 168 149.648 169.896 146.272 173.272C142.896 176.648 141 181.226 141 186V186.6C141 187.5 141.3 188.4 141.75 189C144 192 148.5 190.5 148.5 186.6V186C148.5 183.215 149.606 180.544 151.575 178.575C153.545 176.606 156.215 175.5 159 175.5H231C233.785 175.5 236.455 176.606 238.425 178.575C240.394 180.544 241.5 183.215 241.5 186V186.6C241.5 190.35 246 192.15 248.25 189Z" fill="#5353D3" fill-opacity="0.5"/>
<path fill-rule="evenodd" clip-rule="evenodd" d="M249 150C249 157.091 247.603 164.113 244.889 170.665C242.176 177.216 238.198 183.169 233.184 188.184C228.169 193.198 222.216 197.176 215.665 199.889C209.113 202.603 202.091 204 195 204C187.909 204 180.887 202.603 174.335 199.889C167.783 197.176 161.831 193.198 156.816 188.184C151.802 183.169 147.824 177.216 145.11 170.665C142.397 164.113 141 157.091 141 150C141 135.678 146.689 121.943 156.816 111.816C166.943 101.689 180.678 96 195 96C209.322 96 223.057 101.689 233.184 111.816C243.311 121.943 249 135.678 249 150ZM240.45 205.05C239.373 204.037 237.981 203.424 236.506 203.315C235.032 203.206 233.564 203.606 232.35 204.45C218.781 213.756 202.226 217.658 185.93 215.392C169.633 213.125 154.771 204.854 144.256 192.199C133.742 179.544 128.333 163.418 129.091 146.982C129.848 130.546 136.718 114.986 148.352 103.352C159.986 91.7176 175.546 84.8484 191.982 84.0908C208.418 83.3332 224.544 88.7419 237.199 99.2564C249.854 109.771 258.125 124.633 260.392 140.93C262.658 157.226 258.756 173.781 249.45 187.35C247.65 189.9 247.95 193.35 250.05 195.45L279.6 225C280.699 226.122 281.315 227.629 281.315 229.2C281.315 230.77 280.699 232.278 279.6 233.4L278.4 234.6C277.278 235.699 275.77 236.315 274.2 236.315C272.629 236.315 271.122 235.699 270 234.6L240.45 205.05Z" fill="#5353D3"/>
</g>
<defs>
<radialGradient id="paint0_radial_103_1487" cx="0" cy="0" r="1" gradientUnits="userSpaceOnUse" gradientTransform="translate(189.23 150) rotate(90) scale(157.5 193.73)">
<stop stop-color="#5353D3" stop-opacity="0.8"/>
<stop offset="1" stop-color="#5353D3" stop-opacity="0"/>
</radialGradient>
<clipPath id="clip0_103_1487">
<rect width="390" height="300" fill="white"/>
</clipPath>
</defs>
</svg>
