<svg width="340" height="283" viewBox="0 0 340 283" fill="none" xmlns="http://www.w3.org/2000/svg">
<path fill-rule="evenodd" clip-rule="evenodd" d="M48.9401 174.22L50.2801 198.67C50.3701 200.33 50.9901 201.9 52.0401 203.18C59.4001 212.09 92.4001 243.19 166.77 243.19C241.14 243.19 273.74 212.5 281.38 203.35C282.53 201.97 283.19 200.26 283.3 198.45L284.63 174.24C293.48 169.38 302.62 163.89 302.62 163.89C316.99 156.1 333.03 167.29 333.06 183.69C333.11 210.23 312.37 237.5 284.4 254.69C252.86 274.07 205.78 282.11 166.79 282.11C127.8 282.11 80.7201 274.07 49.1801 254.69C21.2101 237.5 0.47011 210.24 0.52011 183.69C0.55011 167.29 16.5901 156.1 30.9601 163.89C30.9601 163.89 40.0801 169.37 48.9301 174.22H48.9401Z" fill="#5353D3"/>
<path fill-rule="evenodd" clip-rule="evenodd" d="M166.79 0.73999C227.6 0.73999 244.09 2.16 268.81 5C280.21 6.31 289.34 14.79 288.49 26.28L279.38 150.35C276.53 151.18 273.42 152.22 269.94 153.39C251.67 159.52 223.03 169.13 166.8 169.13C110.57 169.13 81.9202 159.52 63.6602 153.39C60.1702 152.22 57.0601 151.18 54.2101 150.35L45.1002 26.29C44.2602 14.8 53.3702 6.12001 64.7802 5.01001C89.2002 2.64001 114.63 0.75 166.8 0.75L166.79 0.73999ZM58.5602 209.79L58.5902 210.23L59.2202 210.37C59.0002 210.17 58.7802 209.98 58.5602 209.79ZM274.42 210.36L274.99 210.23L275.02 209.83C274.83 210 274.63 210.18 274.42 210.36Z" fill="#5353D3"/>
</svg>
